# xmcd CD database file
#
# Track frame offsets:
#	150
#	14053
#	27884
#	39973
#	52496
#	64105
#	74350
#	86588
#	100738
#	114798
#	128966
#	144161
#	158455
#	173625
#	186944
#	199860
#	212168
#	226956
#	241075
#	252781
#	267620
#	281291
#	295427
#	309367
#	320246
#	332026
#	343256
#
# Disc length: 4757 seconds
#
# Revision: 0
# Processed by: cddbd v1.5.2PL0 Copyright (c) Steve Scherf et al.
# Submitted via: CDex 1.51
#
DISCID=9112931b
DTITLE=Django Reinhardt - Renown and Resistance 1937-1943 Disc B
DYEAR=2011
DGENRE=Jazz
TTITLE0=Easy Going
TTITLE1=College Stomp
TTITLE2=Harlem Swing
TTITLE3=It Had To Be You
TTITLE4=Sweet Sue
TTITLE5=Les Salades De L'Oncle Francois
TTITLE6=Ric Et Pussy
TTITLE7=Un Sourire En Chantant
TTITLE8=Siffler En Travaillant
TTITLE9=I'm Coming Virginia
TTITLE10=Farewell Blues
TTITLE11=Blue Light Blues
TTITLE12=Bouncin' Around
TTITLE13=Ridin' Along The Moscowa
TTITLE14=Gotta Date In Louisiana
TTITLE15=Gabirel's Swing
TTITLE16=Doin' The New Low Down
TTITLE17=Body And Soul
TTITLE18=Lover Come Back To Me
TTITLE19=My Melancholy Baby
TTITLE20=I Got Rhythm
TTITLE21=Montmartre
TTITLE22=Low Cotton
TTITLE23=Finesse
TTITLE24=I Know That You Know
TTITLE25=Solid Old Man
TTITLE26=The Sheik
EXTD=YEAR: 2011
EXTT0=
EXTT1=
EXTT2=
EXTT3=
EXTT4=
EXTT5=
EXTT6=
EXTT7=
EXTT8=
EXTT9=
EXTT10=
EXTT11=
EXTT12=
EXTT13=
EXTT14=
EXTT15=
EXTT16=
EXTT17=
EXTT18=
EXTT19=
EXTT20=
EXTT21=
EXTT22=
EXTT23=
EXTT24=
EXTT25=
EXTT26=
PLAYORDER=
